<svg width="24" height="24" viewBox="0 0 24 24" fill="none" xmlns="http://www.w3.org/2000/svg">
<path d="M15.3548 20.8451H5.09082V22.1565C5.09082 22.6454 5.285 23.1143 5.63066 23.46C5.97632 23.8057 6.44514 23.9999 6.93401 24H20.8475C21.3363 23.9999 21.8051 23.8057 22.1508 23.4601C22.4964 23.1144 22.6906 22.6456 22.6907 22.1568V6.4664L16.2241 0H6.93401C6.44516 0 5.97634 0.194194 5.63068 0.539861C5.28501 0.885528 5.09082 1.35435 5.09082 1.8432V11.2877H15.3548C15.5853 11.2877 15.8064 11.3793 15.9695 11.5424C16.1325 11.7054 16.2241 11.9265 16.2241 12.1571V19.9757C16.224 20.2063 16.1324 20.4274 15.9694 20.5904C15.8064 20.7534 15.5853 20.845 15.3548 20.8451Z" fill="#EAEAE4"/>
<path d="M22.6904 6.4664L16.2238 0V4.6232C16.2239 5.11203 16.4181 5.58081 16.7638 5.92646C17.1094 6.27211 17.5782 6.46633 18.067 6.4664H22.6904Z" fill="#BABAB9"/>
<path d="M15.3546 11.2883H1.86933C1.38921 11.2883 1 11.6775 1 12.1577V19.9763C1 20.4564 1.38921 20.8457 1.86933 20.8457H15.3546C15.8347 20.8457 16.2239 20.4564 16.2239 19.9763V12.1577C16.2239 11.6775 15.8347 11.2883 15.3546 11.2883Z" fill="#F24646"/>
<path d="M4.60195 16.7409C5.43608 16.7409 6.05207 16.2036 6.05207 15.442C6.05207 14.6804 5.43608 14.1431 4.60195 14.1431H2.87183V17.9897H3.69502V16.7409H4.60195ZM3.69529 14.8991H4.51155C4.92035 14.8991 5.20008 15.1124 5.20008 15.442C5.20008 15.7716 4.92035 15.9852 4.51155 15.9852H3.69502L3.69529 14.8991ZM10.4702 16.0636C10.4702 14.9383 9.55205 14.1436 8.25872 14.1436H6.8814V17.9897H8.25872C9.55151 17.9897 10.4702 17.1889 10.4702 16.0636ZM8.36512 17.2396H7.70433V14.8929H8.36512C8.52552 14.8827 8.68631 14.9054 8.83758 14.9597C8.98884 15.014 9.12736 15.0988 9.24458 15.2088C9.36181 15.3187 9.45524 15.4515 9.51911 15.599C9.58298 15.7465 9.61593 15.9055 9.61593 16.0663C9.61593 16.227 9.58298 16.386 9.51911 16.5335C9.45524 16.681 9.36181 16.8138 9.24458 16.9238C9.12736 17.0337 8.98884 17.1185 8.83758 17.1728C8.68631 17.2271 8.52552 17.2499 8.36512 17.2396ZM14.3512 14.8879V14.1431H11.3894V17.9897H12.2179V16.4668H14.1496V15.722H12.2179V14.8879H14.3512Z" fill="#FFFCEE"/>
</svg>
