<svg width="15" height="21" viewBox="0 0 15 21" fill="none" xmlns="http://www.w3.org/2000/svg">
<g clip-path="url(#clip0_2967_7553)">
<path fill-rule="evenodd" clip-rule="evenodd" d="M7.47888 9.87841C6.11593 11.0342 5.00057 12.3512 4.65031 14.2502H4.65165C4.69468 14.2502 4.729 14.2519 4.75748 14.2534C4.80484 14.2558 4.83618 14.2574 4.86497 14.2488C5.12083 14.1692 5.37779 14.0927 5.63475 14.0163C6.23729 13.8369 6.83989 13.6576 7.42885 13.4373C10.4351 12.3143 11.3886 9.53819 10.4233 6.49707C10.4082 6.50004 10.3927 6.50193 10.3771 6.50383C10.3422 6.50812 10.3072 6.51241 10.2771 6.52845C9.93535 6.71391 9.59293 6.89822 9.25052 7.08254C8.32134 7.5827 7.39209 8.08299 6.47411 8.60506C5.51023 9.15295 4.78859 9.94395 4.43832 11.0533C4.42469 11.0967 4.39043 11.1331 4.37156 11.1532C4.36663 11.1584 4.36279 11.1625 4.3606 11.1653C4.26012 11.0702 4.16603 10.9675 4.07321 10.8663C3.87297 10.6478 3.67907 10.4363 3.44146 10.3224C2.68147 9.95696 1.90268 9.63209 1.1156 9.3038C0.802081 9.17297 0.487235 9.04169 0.171767 8.90701C-0.220654 10.2705 0.0650997 11.4495 0.969763 12.4769C1.79148 13.4114 2.8186 13.8089 4.08015 13.742C3.84443 12.6231 3.27159 11.7679 2.56182 10.9864C3.19497 11.3241 3.5456 11.9041 3.90809 12.5037C4.07638 12.7821 4.24728 13.0648 4.45013 13.3294C5.03088 11.72 5.99877 10.5533 7.47888 9.87841ZM5.92762 15.6547C5.60037 15.6547 5.33507 15.9299 5.33507 16.2695C5.33507 16.609 5.60037 16.8843 5.92762 16.8843H10.879C11.2062 16.8843 11.4715 16.609 11.4715 16.2695C11.4715 15.9299 11.2062 15.6547 10.879 15.6547H5.92762ZM5.90133 17.7826C5.90133 17.4431 6.16663 17.1678 6.49389 17.1678H10.2863C10.6137 17.1678 10.879 17.4431 10.879 17.7826C10.879 18.1221 10.6137 18.3974 10.2863 18.3974H6.49389C6.16663 18.3974 5.90133 18.1221 5.90133 17.7826ZM6.91457 18.6536C6.62407 18.6536 6.38853 18.898 6.38853 19.1994C6.38853 19.4474 6.53406 19.6703 6.75596 19.7624L7.23957 19.9631C7.32922 20.0003 7.40852 20.0601 7.47036 20.137C7.93529 20.7159 8.79229 20.7159 9.25722 20.137C9.31905 20.0601 9.39836 20.0003 9.48801 19.9631L9.97162 19.7624C10.1935 19.6703 10.339 19.4474 10.339 19.1994C10.339 18.898 10.1035 18.6536 9.81301 18.6536H6.91457Z" fill="white"/>
<path fill-rule="evenodd" clip-rule="evenodd" d="M14.4021 2.91432C14.5299 2.79103 14.6579 2.66751 14.7864 2.54394H14.785C14.7595 2.50918 14.7378 2.47816 14.7182 2.45005C14.6822 2.39848 14.6529 2.35668 14.6188 2.31948C14.5938 2.29163 14.569 2.26356 14.5441 2.23548C14.4444 2.1228 14.3445 2.00995 14.2336 1.91024C12.8655 0.678445 11.2456 0.0940195 9.46067 0.0119013C7.51612 -0.0770681 5.65866 0.322587 4.08483 1.55576C1.87644 3.28713 1.05325 5.65905 1.35801 8.48258C1.39228 8.80424 1.57036 8.96027 1.85008 9.04103C2.6772 9.28053 3.47931 9.57617 4.17058 10.1674C4.19182 10.1421 4.21306 10.1169 4.23424 10.0917C4.6212 9.63224 4.98522 9.19996 4.75632 8.5278C4.72254 8.42803 4.71262 8.32005 4.7027 8.21189C4.69753 8.15531 4.69235 8.09873 4.68377 8.04329C4.26291 5.36204 6.07027 3.04898 8.69021 2.90116C10.1506 2.81767 11.4065 3.29671 12.4922 4.29858C12.5754 4.37523 12.7864 4.44503 12.8366 4.39849C13.3651 3.91499 13.8817 3.41649 14.4021 2.91432ZM6.20764 14.3229C6.15579 14.3419 6.09547 14.364 6.02146 14.3898C6.09231 14.4231 6.14897 14.4517 6.19681 14.4759C6.2808 14.5183 6.33776 14.5471 6.39747 14.5636C9.17048 15.3342 11.7746 14.9085 14.1993 13.3332C14.3669 13.225 14.5225 12.9404 14.5252 12.7364C14.5396 11.5644 14.5355 10.3917 14.5315 9.21884C14.5297 8.67145 14.5278 8.12399 14.5278 7.57654C14.5278 7.33154 14.4355 7.24535 14.1954 7.24945C13.4579 7.26315 12.7192 7.26997 11.9817 7.24674C11.644 7.23575 11.5543 7.35894 11.5596 7.69291C11.5681 8.21163 11.5668 8.73036 11.5655 9.24908C11.5642 9.76781 11.5629 10.2865 11.5714 10.8053C11.578 11.2391 11.4527 11.5142 11.0371 11.6881C10.677 11.8386 10.3023 12.0385 10.0319 12.3176C9.02136 13.3592 7.78525 13.9149 6.4304 14.2489C6.36394 14.2654 6.299 14.2893 6.20764 14.3229Z" fill="white"/>
</g>
<defs>
<clipPath id="clip0_2967_7553">
<rect width="15" height="21" fill="white"/>
</clipPath>
</defs>
</svg>
